<svg width="25" height="30" viewBox="0 0 25 30" fill="none" xmlns="http://www.w3.org/2000/svg">
<path d="M6.19304 29.4343C5.67523 29.1111 5.1367 28.6465 4.59818 28C4.22535 27.5758 3.76968 26.9697 3.23115 26.1818C2.29909 24.8687 1.53273 23.3535 0.952775 21.6364C0.310688 19.7576 0 17.9596 0 16.202C0 14.2424 0.434963 12.5253 1.28418 11.0909C1.94698 9.93939 2.83761 9.0303 3.9768 8.36364C5.11599 7.67677 6.31732 7.33333 7.6222 7.31313C8.07788 7.31313 8.55427 7.37374 9.07208 7.49495C9.4449 7.59596 9.90058 7.75758 10.4391 7.9596C11.1433 8.22222 11.5369 8.38384 11.6611 8.42424C12.0754 8.56566 12.4275 8.62626 12.6968 8.62626C12.9039 8.62626 13.1939 8.56566 13.5253 8.46465C13.7117 8.40404 14.0638 8.28283 14.5609 8.08081C15.058 7.89899 15.4515 7.75758 15.7622 7.63636C16.2386 7.49495 16.6943 7.37374 17.1085 7.31313C17.6056 7.23232 18.1027 7.21212 18.5791 7.25253C19.4905 7.31313 20.319 7.49495 21.0646 7.77778C22.3695 8.28283 23.4258 9.09091 24.2129 10.2222C23.8815 10.4242 23.5708 10.6465 23.2809 10.9091C22.6388 11.4747 22.1002 12.101 21.7067 12.7879C21.1475 13.7576 20.8782 14.8283 20.8782 15.9394C20.8989 17.2929 21.251 18.4848 21.9553 19.5152C22.4524 20.2626 23.1152 20.9091 23.9229 21.4343C24.3165 21.697 24.6686 21.8788 25 22C24.8343 22.5253 24.6479 22.9899 24.4822 23.3737C24.0265 24.4242 23.488 25.3737 22.8873 26.2626C22.3281 27.0505 21.8931 27.6364 21.5617 28.0202C21.0439 28.6263 20.5468 29.0707 20.0497 29.3939C19.4698 29.7576 18.8484 29.9394 18.1856 29.9394C17.7299 29.9596 17.2949 29.899 16.86 29.7778C16.6114 29.697 16.2386 29.5758 15.7622 29.3737C15.2858 29.1717 14.8923 29.0303 14.6023 28.9495C14.1259 28.8283 13.6288 28.7677 13.111 28.7677C12.5932 28.7677 12.0961 28.8283 11.6197 28.9495C11.2883 29.0303 10.9155 29.1717 10.4598 29.3535C9.92129 29.5758 9.56918 29.7172 9.36205 29.7778C8.9478 29.899 8.51284 29.9798 8.09859 30C7.43579 30 6.81442 29.8182 6.19304 29.4343ZM14.9751 6.36364C14.1052 6.78788 13.2767 6.9697 12.4482 6.90909C12.3239 6.10101 12.4482 5.27273 12.8003 4.36364C13.111 3.59596 13.5253 2.88889 14.0845 2.26263C14.6437 1.63636 15.3273 1.11111 16.1765 0.686869C17.0257 0.262626 17.8335 0.040404 18.5998 0C18.7034 0.848485 18.5998 1.69697 18.2891 2.58586C17.9992 3.39394 17.5642 4.12121 17.005 4.78788C16.4457 5.45455 15.7622 5.9798 14.9751 6.36364Z" fill="#1D1D1F"/>
</svg>
